<svg xmlns="http://www.w3.org/2000/svg" version="1.1" xmlns:xlink="http://www.w3.org/1999/xlink" xmlns:svgjs="http://svgjs.com/svgjs" width="1440" height="600" preserveAspectRatio="none" viewBox="0 0 1440 600">
    <g mask="url(&quot;#SvgjsMask1001&quot;)" fill="none">
        <rect width="1440" height="600" x="0" y="0" fill="rgba(203, 205, 204, 1)"></rect>
        <path d="M0,415.574C77.804,409.698,140.589,359.577,213.876,332.798C312.599,296.724,454.649,322.841,505.508,230.858C555.229,140.932,454.652,38.135,432.246,-62.148C412.039,-152.59,437.153,-256.348,380.302,-329.533C322.764,-403.603,221.187,-420.468,131.81,-448.905C40.429,-477.98,-58.927,-537.309,-145.921,-496.962C-233.716,-456.243,-230.289,-327.547,-291.493,-252.58C-349.969,-180.954,-479.799,-162.397,-493.694,-70.982C-507.565,20.275,-401.362,82.37,-354.493,161.891C-313.583,231.301,-301.217,319.863,-235.697,366.751C-169.101,414.409,-81.659,421.741,0,415.574" fill="#a1a5a3"></path>
        <path d="M1440 1104.211C1572.102 1137.037 1704.9859999999999 1262.203 1827.649 1203.193 1946.557 1145.99 1955.524 975.6279999999999 1977.6779999999999 845.549 1995.942 738.308 1952.358 636.079 1942.686 527.725 1932.299 411.36 1982.453 283.096 1918.732 185.176 1853.722 85.27599999999995 1729.213 32.49300000000005 1610.92 17.900999999999954 1500.166 4.239000000000033 1405.206 87.202 1295.628 108.315 1169.843 132.55 1024.233 74.19100000000003 921.515 150.73000000000002 816.428 229.034 775.662 372.387 765.85 503.072 756.363 629.417 793.041 759.124 868.174 861.144 936.768 954.2850000000001 1052.657 991.817 1159.113 1037.068 1249.54 1075.5059999999999 1344.643 1080.516 1440 1104.211" fill="#f5f5f5"></path>
    </g>
    <defs>
        <mask id="SvgjsMask1001">
            <rect width="1440" height="600" fill="#ffffff"></rect>
        </mask>
    </defs>
</svg>